<?xml version="1.0" encoding="UTF-8"?>
<svg xmlns="http://www.w3.org/2000/svg" xmlns:xlink="http://www.w3.org/1999/xlink" width="38px" height="58px" viewBox="0 0 38 38" version="1.1">
<g id="surface1">
<path style=" stroke:none;fill-rule:nonzero;fill:rgb(0%,0%,0%);fill-opacity:1;" d="M 17.605469 1.558594 C 14.292969 1.898438 11.101562 3.59375 8.949219 6.175781 C 6.5 9.097656 5.386719 13.0625 6.054688 16.492188 C 6.679688 19.667969 8.726562 23.988281 11.832031 28.632812 C 14.515625 32.65625 17.410156 35.953125 18.703125 36.472656 C 18.835938 36.515625 19.03125 36.546875 19.164062 36.515625 C 19.964844 36.367188 22.027344 34.273438 24.195312 31.410156 C 28.097656 26.242188 31.128906 20.453125 31.898438 16.667969 C 32.761719 12.5 31.082031 7.75 27.667969 4.765625 C 24.921875 2.34375 21.242188 1.171875 17.605469 1.558594 Z M 20.855469 6.054688 C 23.46875 6.648438 25.679688 8.386719 26.882812 10.777344 C 27.625 12.246094 27.921875 14.207031 27.667969 15.851562 C 27.371094 17.8125 26.570312 19.402344 25.175781 20.796875 C 23.171875 22.800781 20.5 23.691406 17.722656 23.273438 C 15.839844 23.007812 14.207031 22.175781 12.839844 20.796875 C 11.5625 19.535156 10.792969 18.09375 10.40625 16.34375 C 10.226562 15.527344 10.226562 13.730469 10.40625 12.914062 C 10.65625 11.769531 11.117188 10.671875 11.769531 9.691406 C 12.214844 9.039062 13.417969 7.824219 14.070312 7.390625 C 15.257812 6.589844 16.625 6.085938 18.035156 5.90625 C 18.585938 5.832031 20.277344 5.921875 20.855469 6.054688 Z M 20.855469 6.054688 "/>
</g>
</svg>
